<?xml version="1.0" encoding="UTF-8" standalone="no"?>
<!-- Created with Inkscape (http://www.inkscape.org/) -->

<svg
   width="251.5"
   height="251.5"
   viewBox="0 0 66.542705 66.54271"
   version="1.1"
   id="svg5"
   xmlns="http://www.w3.org/2000/svg"
   xmlns:svg="http://www.w3.org/2000/svg"
   xmlns:rdf="http://www.w3.org/1999/02/22-rdf-syntax-ns#"
   xmlns:cc="http://creativecommons.org/ns#"
   xmlns:dc="http://purl.org/dc/elements/1.1/">
  <title
     id="title1016">Holy Cross College, Dhaka - হলি ক্রস কলেজ</title>
  <defs
     id="defs2">
    <clipPath
       id="clip0">
      <rect
         x="274"
         y="88"
         width="481"
         height="481"
         id="rect8953" />
    </clipPath>
    <clipPath
       id="clip0-5">
      <rect
         x="274"
         y="88"
         width="481"
         height="481"
         id="rect16942" />
    </clipPath>
    <pattern
       id="EMFhbasepattern"
       patternUnits="userSpaceOnUse"
       width="6"
       height="6"
       x="0"
       y="0" />
    <pattern
       id="EMFhbasepattern-3"
       patternUnits="userSpaceOnUse"
       width="6"
       height="6"
       x="0"
       y="0" />
  </defs>
  <metadata
     id="metadata1014">
    <rdf:RDF>
      <cc:Work
         rdf:about="">
        <dc:title>Holy Cross College, Dhaka - হলি ক্রস কলেজ</dc:title>
      </cc:Work>
    </rdf:RDF>
  </metadata>
  <g
     id="g11128"
     transform="matrix(0.99964427,0,0,0.99964427,0.01183546,0.01183563)">
    <path
       id="path324"
       style="fill:#ffffff;fill-rule:evenodd;stroke-width:0.787495;stop-color:#000000"
       d="M 66.013542,33.271355 A 32.742187,32.742187 0 0 1 33.271355,66.013542 32.742187,32.742187 0 0 1 0.52916718,33.271355 32.742187,32.742187 0 0 1 33.271355,0.52916718 32.742187,32.742187 0 0 1 66.013542,33.271355 Z" />
    <g
       id="g11101">
      <path
         d="m 8.778473,33.271366 c 0,-13.527017 10.965866,-24.4928892 24.492881,-24.4928892 13.52701,0 24.49288,10.9658712 24.49288,24.4928892 0,13.526994 -10.96587,24.492864 -24.49288,24.492864 -13.527012,0 -24.492881,-10.96587 -24.492881,-24.492864 z"
         fill="#4472c4"
         fill-rule="evenodd"
         id="path16947"
         style="fill:none;stroke:#000000;stroke-width:0.529167;stroke-miterlimit:4;stroke-dasharray:none;stroke-opacity:1" />
      <path
         d="m 0.45125181,33.271371 c 0,-18.126007 14.69410019,-32.82011552 32.82010219,-32.82011552 18.125997,0 32.820102,14.69410852 32.820102,32.82011552 0,18.125977 -14.694105,32.820081 -32.820102,32.820081 -18.125998,0 -32.82010219,-14.694104 -32.82010219,-32.820081 z"
         fill="#4472c4"
         fill-rule="evenodd"
         id="path17073"
         style="fill:none;stroke:#000000;stroke-width:0.529167;stroke-miterlimit:4;stroke-dasharray:none;stroke-opacity:1" />
      <g
         id="g11076">
        <g
           id="g15927"
           transform="matrix(0.33708506,0,0,0.33708506,-55.452953,-2.2920115)">
          <path
             style="fill:#5b6f71;fill-opacity:1;stroke:none;stroke-width:0.264583px;stroke-linecap:butt;stroke-linejoin:miter;stroke-opacity:1"
             d="m 305.15306,113.94084 c 0.46778,-2.48135 3.24003,-3.74983 5.23848,-5.42557 l -4.30304,1.68379 c 0.62018,-2.46255 1.40057,-4.96151 3.92886,-7.85772 l -4.30304,2.5257 c 0.84446,-7.244727 3.82917,-11.794327 7.01583,-16.089627 l 0.18709,-7.67064 -6.45457,11.03824 c 0.34864,-12.61687 -2.43943,-27.596069 4.30305,-35.874256 -0.81529,-1.338017 -4.55512,-2.709986 -5.98684,1.07576 -2.53118,6.692919 -1.75073,12.007141 -2.33861,17.866966 -1.76563,-4.9385 -5.14886,-9.821704 -10.85114,-13.283292 -4.56798,-2.773007 -5.8281,0.341978 -6.92229,2.432153 7.00528,-2.373303 20.70627,13.182002 18.89596,26.473049 -5.61357,-5.61331 -12.64459,-13.9921 -16.18414,-14.05435 -2.31722,-0.0408 -3.35551,1.13541 -1.96346,4.18542 2.08051,-2.870116 14.39774,6.344377 16.65089,16.88475 -4.74723,-5.44545 -10.40872,-8.30054 -17.39925,-7.39 -6.1104,0.86716 -7.08877,3.89516 -5.33202,5.98683 1.61639,-4.017797 18.45418,-3.954106 21.18779,7.390007 -7.36155,-4.369177 -13.43877,-5.649857 -16.21487,-3.66996 2.40237,-0.0606 10.88324,0.79117 10.2748,5.16667 0.95765,-0.97138 2.28476,-1.43167 3.55469,-0.18709 0.63183,0.61922 0.59229,0.94461 -0.46772,2.71278 -0.43044,0.718 1.26472,0.79326 2.71278,0.37418 1.02075,0.25639 1.5721,-0.1263 2.05798,2.15152 0.21838,1.02379 1.42838,0.33906 1.40316,1.30962 -0.42019,0.63106 -2.03594,0.71869 -3.36759,0.93545 z"
             id="path15923" />
          <path
             style="fill:#5b6f71;fill-opacity:1;stroke:none;stroke-width:0.264583px;stroke-linecap:butt;stroke-linejoin:miter;stroke-opacity:1"
             d="m 221.26782,113.94084 c -0.46778,-2.48135 -3.24003,-3.74983 -5.23848,-5.42557 l 4.30304,1.68379 c -0.62018,-2.46255 -1.40057,-4.96151 -3.92886,-7.85772 l 4.30304,2.5257 c -0.84446,-7.244727 -3.82917,-11.794327 -7.01583,-16.089627 l -0.18709,-7.67064 6.45457,11.03824 c -0.34864,-12.61687 2.43943,-27.596069 -4.30305,-35.874256 0.81529,-1.338017 4.55512,-2.709986 5.98684,1.07576 2.53118,6.692919 1.75073,12.007141 2.33861,17.866966 1.76563,-4.9385 5.14886,-9.821704 10.85114,-13.283292 4.56798,-2.773007 5.8281,0.341978 6.92229,2.432153 -7.00528,-2.373303 -20.70627,13.182002 -18.89596,26.473049 5.61357,-5.61331 12.64459,-13.9921 16.18414,-14.05435 2.31722,-0.0408 3.35551,1.13541 1.96346,4.18542 -2.08051,-2.870116 -14.39774,6.344377 -16.65089,16.88475 4.74723,-5.44545 10.40872,-8.30054 17.39925,-7.39 6.1104,0.86716 7.08877,3.89516 5.33202,5.98683 -1.61639,-4.017797 -18.45418,-3.954106 -21.18779,7.390007 7.36155,-4.369177 13.43877,-5.649857 16.21487,-3.66996 -2.40237,-0.0606 -10.88324,0.79117 -10.2748,5.16667 -0.95765,-0.97138 -2.28476,-1.43167 -3.55469,-0.18709 -0.63183,0.61922 -0.59229,0.94461 0.46772,2.71278 0.43044,0.718 -1.26472,0.79326 -2.71278,0.37418 -1.02075,0.25639 -1.5721,-0.1263 -2.05798,2.15152 -0.21838,1.02379 -1.42838,0.33906 -1.40316,1.30962 0.42019,0.63106 2.03594,0.71869 3.36759,0.93545 z"
             id="path9999" />
        </g>
        <path
           id="path2207"
           style="fill:none;stroke:#000000;stroke-width:0.529167;stroke-linecap:butt;stroke-linejoin:miter;stroke-miterlimit:4;stroke-dasharray:none;stroke-opacity:1"
           d="M 16.669977,36.873293 33.271356,31.267638 49.87273,36.873293 M 16.669977,15.662342 v 21.210951 c 0,14.32235 16.601376,20.587094 16.601376,20.587094 0,0 16.601377,-6.264744 16.601377,-20.587094 V 15.662342 H 33.271353 Z" />
        <path
           id="path75069"
           style="font-size:11.4034px;line-height:125%;font-family:Calibri;letter-spacing:0px;word-spacing:0px;stroke-width:0.0583024"
           d="m 29.189465,19.366715 c -0.239485,0 -0.444383,0.03625 -0.614432,0.108521 -0.168632,0.07227 -0.297916,0.177386 -0.388607,0.31626 -0.08928,0.137455 -0.133842,0.285704 -0.133842,0.444417 0,0.246572 0.0955,0.455885 0.286804,0.627352 0.136038,0.121868 0.37277,0.224383 0.710034,0.307991 0.262159,0.06519 0.430159,0.110403 0.503846,0.135909 0.107698,0.03826 0.182795,0.08348 0.225309,0.135909 0.04393,0.05101 0.06563,0.113381 0.06563,0.187069 0,0.114784 -0.05158,0.215865 -0.155029,0.302307 -0.10203,0.08502 -0.254696,0.127124 -0.457337,0.127124 -0.191307,0 -0.343453,-0.04782 -0.45682,-0.144177 -0.111947,-0.09636 -0.186395,-0.247726 -0.223242,-0.453202 l -0.611849,0.05994 c 0.04109,0.348602 0.167125,0.614048 0.378272,0.796851 0.211145,0.181386 0.513489,0.272335 0.907438,0.272335 0.27066,0 0.49661,-0.03755 0.677995,-0.112655 0.181389,-0.07652 0.321969,-0.192937 0.421163,-0.348816 0.0992,-0.155878 0.148828,-0.323226 0.148828,-0.501778 0,-0.196975 -0.04196,-0.361855 -0.125574,-0.49506 -0.08219,-0.134623 -0.196788,-0.240254 -0.344165,-0.316777 -0.145959,-0.07794 -0.372423,-0.153038 -0.678512,-0.225309 -0.306086,-0.07227 -0.498386,-0.141656 -0.577742,-0.208256 -0.06235,-0.05243 -0.09302,-0.115448 -0.09302,-0.189136 0,-0.08077 0.03314,-0.14509 0.09974,-0.19327 0.103447,-0.07511 0.246628,-0.112654 0.429431,-0.112654 0.177136,0 0.309532,0.03508 0.397392,0.105936 0.08927,0.06944 0.147222,0.184552 0.174149,0.344682 l 0.629419,-0.02791 c -0.0099,-0.28625 -0.114249,-0.515313 -0.312642,-0.68678 -0.196974,-0.171467 -0.491002,-0.256832 -0.882117,-0.256832 z m 8.711097,0 c -0.239486,0 -0.444382,0.03625 -0.614433,0.108521 -0.168632,0.07227 -0.29843,0.177386 -0.389124,0.31626 -0.08928,0.137455 -0.133842,0.285704 -0.133842,0.444417 0,0.246572 0.0955,0.455885 0.286804,0.627352 0.136041,0.121868 0.37277,0.224383 0.710035,0.307991 0.262158,0.06519 0.430158,0.110403 0.503845,0.135909 0.107697,0.03826 0.182795,0.08348 0.225309,0.135909 0.04393,0.05101 0.06666,0.113381 0.06666,0.187069 0,0.114784 -0.0521,0.215865 -0.155546,0.302307 -0.102033,0.08502 -0.254179,0.127124 -0.45682,0.127124 -0.191307,0 -0.343455,-0.04782 -0.45682,-0.144177 -0.111948,-0.09636 -0.186395,-0.247726 -0.223242,-0.453202 l -0.612882,0.05994 c 0.04109,0.348602 0.167643,0.614048 0.378788,0.796851 0.211144,0.181386 0.514004,0.272335 0.907955,0.272335 0.270661,0 0.496093,-0.03755 0.677478,-0.112655 0.181386,-0.07652 0.321966,-0.192937 0.421163,-0.348816 0.09919,-0.155878 0.148828,-0.323226 0.148828,-0.501778 0,-0.196975 -0.04197,-0.361855 -0.125574,-0.49506 -0.08219,-0.134623 -0.196788,-0.240254 -0.344165,-0.316777 -0.145959,-0.07794 -0.371906,-0.153038 -0.677995,-0.225309 -0.30609,-0.07227 -0.498903,-0.141656 -0.578259,-0.208256 -0.06235,-0.05243 -0.09353,-0.115448 -0.09353,-0.189136 0,-0.08077 0.03313,-0.14509 0.09973,-0.19327 0.103445,-0.07511 0.246626,-0.112654 0.429431,-0.112654 0.177133,0 0.31005,0.03508 0.397909,0.105936 0.08928,0.06944 0.147223,0.184552 0.174149,0.344682 l 0.628903,-0.02791 c -0.0099,-0.28625 -0.113735,-0.515313 -0.312126,-0.68678 -0.196974,-0.171467 -0.491002,-0.256832 -0.882117,-0.256832 z m -6.897771,0.05323 v 3.116089 h 0.628903 v -1.175639 h 0.41031 c 0.284833,0 0.502463,-0.01468 0.652674,-0.04444 0.11053,-0.02409 0.218763,-0.07307 0.325045,-0.146761 0.107696,-0.07511 0.196694,-0.178137 0.266133,-0.308508 0.06943,-0.130371 0.10387,-0.290835 0.10387,-0.482141 0,-0.247989 -0.0599,-0.450286 -0.180351,-0.606165 -0.120453,-0.157292 -0.270001,-0.259158 -0.448551,-0.305924 -0.116202,-0.03117 -0.365174,-0.04651 -0.747758,-0.04651 z m 2.903699,0 v 3.116089 h 2.369881 v -0.525033 h -1.740979 v -0.84801 h 1.564763 v -0.525032 h -1.564763 v -0.690914 h 1.681551 v -0.5271 z m -2.27428,0.5271 h 0.304375 c 0.226728,0 0.377061,0.007 0.452168,0.02119 0.102033,0.01842 0.186098,0.06429 0.252698,0.137976 0.0666,0.07369 0.100252,0.167237 0.100252,0.280603 0,0.09211 -0.02417,0.172926 -0.07235,0.242363 -0.04677,0.06944 -0.112246,0.120368 -0.195853,0.152962 -0.08361,0.03259 -0.24863,0.04909 -0.496611,0.04909 h -0.345198 z m 4.010608,3.357417 c -0.417716,0.0087 -0.755984,0.152821 -1.015442,0.431499 -0.267826,0.286249 -0.402042,0.688511 -0.402042,1.207161 0,0.49031 0.133567,0.877236 0.399975,1.160653 0.266412,0.281996 0.606307,0.422713 1.020093,0.422713 0.334432,0 0.61001,-0.08212 0.826823,-0.246497 0.21823,-0.165798 0.374142,-0.418511 0.467672,-0.75861 l -0.609782,-0.193786 c -0.05243,0.228149 -0.138966,0.395497 -0.259416,0.501778 -0.120453,0.106281 -0.264283,0.15968 -0.431498,0.15968 -0.226733,0 -0.411229,-0.08393 -0.552938,-0.251147 -0.141706,-0.167216 -0.21239,-0.447861 -0.21239,-0.84181 0,-0.371273 0.07133,-0.639837 0.214457,-0.805635 0.144541,-0.165799 0.332287,-0.248564 0.563273,-0.248564 0.167215,0 0.309097,0.04703 0.425297,0.14056 0.117615,0.09353 0.194664,0.220859 0.231511,0.382406 l 0.623217,-0.148828 c -0.07085,-0.249406 -0.177135,-0.440403 -0.318843,-0.573609 -0.238069,-0.225316 -0.547949,-0.337964 -0.929142,-0.337964 -0.01364,0 -0.02735,-2.81e-4 -0.04082,0 z m -8.808248,0.05271 v 1.662431 c 0,0.348602 0.02092,0.612097 0.06201,0.79065 0.02834,0.12045 0.08694,0.236218 0.176217,0.346748 0.08928,0.109116 0.210241,0.198247 0.363285,0.267684 0.154462,0.06802 0.380926,0.101803 0.678512,0.101803 0.246572,0 0.445887,-0.03118 0.598929,-0.09353 0.153045,-0.06377 0.275176,-0.148485 0.36587,-0.254765 0.09211,-0.106281 0.155129,-0.236729 0.189135,-0.391191 0.03401,-0.154462 0.05116,-0.418608 0.05116,-0.792716 v -1.637117 h -0.629417 v 1.723926 c 0,0.246572 -0.009,0.422886 -0.02739,0.529167 -0.01842,0.106281 -0.07312,0.19658 -0.163815,0.270267 -0.09069,0.07227 -0.225558,0.108521 -0.404109,0.108521 -0.175718,0 -0.314484,-0.0382 -0.416512,-0.114722 -0.100612,-0.07794 -0.164277,-0.180971 -0.191203,-0.308508 -0.01557,-0.07936 -0.02326,-0.253072 -0.02326,-0.520898 v -1.687753 z m 3.15433,0 v 3.116089 h 0.584977 v -2.031917 l 1.256254,2.031917 H 32.4611 v -3.116092 h -0.58446 v 2.08101 l -1.275374,-2.08101 z m 3.118672,0 v 3.116089 h 0.628903 v -3.116092 z m 5.269446,0 -1.213879,3.116089 h 0.667659 l 0.256832,-0.70745 h 1.245919 l 0.271818,0.70745 h 0.684713 l -1.247986,-3.116092 z m 0.325045,0.727088 0.429431,1.156518 h -0.850077 z" />
        <g
           id="g94823"
           transform="matrix(0.33708506,0,0,0.33708506,-87.435909,-7.4897431)">
          <path
             id="path9767"
             style="fill:none;stroke:#000000;stroke-width:1.2;stroke-miterlimit:4;stroke-dasharray:none;stroke-opacity:1"
             d="m 347.5228,128.23801 c -1.1583,0 -2.09755,0.93873 -2.09755,2.09703 0,0.30507 0.0653,0.5953 0.18242,0.85679 l -3.16156,3.16157 c 0.0521,-0.26141 0.0796,-0.53153 0.0796,-0.80822 0,-2.27302 -1.84248,-4.11603 -4.11551,-4.11603 -2.27302,0 -4.11603,1.84301 -4.11603,4.11603 0,2.27301 1.84301,4.11551 4.11603,4.11551 0.2767,0 0.54682,-0.0275 0.80822,-0.0796 l -3.16156,3.16156 c -0.2615,-0.11711 -0.55173,-0.18243 -0.8568,-0.18242 -1.1583,-1e-5 -2.09703,0.93925 -2.09703,2.09755 0,1.15831 0.93873,2.09703 2.09703,2.09703 1.1583,0 2.09755,-0.93872 2.09755,-2.09703 0,-0.28636 -0.0573,-0.55954 -0.16123,-0.80822 l 3.68814,-3.68815 14.94224,15.05593 -6.29677,6.24923 1.18494,1.19631 1.19631,1.18494 6.24045,-6.28799 6.23993,6.28799 1.1963,-1.18494 1.18495,-1.19631 -6.29678,-6.24923 14.94224,-15.05593 3.68815,3.68815 c -0.10393,0.24868 -0.16123,0.52186 -0.16123,0.80822 0,1.15831 0.93924,2.09703 2.09754,2.09703 1.15831,0 2.09703,-0.93872 2.09703,-2.09703 0,-1.1583 -0.93872,-2.09756 -2.09703,-2.09755 -0.30506,-1e-5 -0.5953,0.0653 -0.85679,0.18242 l -3.16156,-3.16156 c 0.26139,0.0521 0.53152,0.0796 0.80822,0.0796 2.27302,0 4.11602,-1.8425 4.11602,-4.11551 0,-2.27302 -1.843,-4.11603 -4.11602,-4.11603 -2.27304,0 -4.11552,1.84301 -4.11552,4.11603 0,0.27669 0.0275,0.54681 0.0796,0.80822 l -3.16157,-3.16157 c 0.11712,-0.26149 0.18242,-0.55172 0.18242,-0.85679 0,-1.1583 -0.93924,-2.09703 -2.09755,-2.09703 -1.15831,0 -2.09703,0.93873 -2.09703,2.09703 0,1.1583 0.93872,2.09754 2.09703,2.09754 0.28636,0 0.55955,-0.0573 0.80822,-0.16123 l 3.68815,3.68815 -15.06471,14.95103 -15.06523,-14.95103 3.68814,-3.68815 c 0.24868,0.10393 0.52186,0.16123 0.80822,0.16123 1.15832,0 2.09703,-0.93924 2.09703,-2.09754 0,-1.1583 -0.93871,-2.09703 -2.09703,-2.09703 z m 19.19005,31.22858 c -0.78903,0.80484 -1.53761,1.57629 -2.38125,2.38125 l 10.92956,10.92957 c -0.64902,2.10513 -1.9196,3.29609 -3.70158,3.07629 -1.27935,-0.1578 -0.60212,-1.02041 -0.23358,-1.63659 -2.21481,1.05001 -4.52996,0.99945 -6.82904,1.12241 2.40144,2.23376 6.37567,3.41886 10.25674,2.62775 1.9743,-0.40244 2.82225,-1.32618 3.51606,-2.18126 l 2.82722,0.44597 -0.44597,-2.82722 c 0.85509,-0.69381 1.77882,-1.54177 2.18126,-3.51607 0.79112,-3.88107 -0.39399,-7.8553 -2.62774,-10.25673 -0.12297,2.29907 -0.0725,4.61423 -1.12241,6.82904 0.61617,-0.36854 1.47879,-1.04578 1.63659,0.23357 0.2198,1.78198 -0.97117,3.05257 -3.0763,3.70159 z m -14.86163,2.38125 c -0.84365,-0.80496 -1.59223,-1.57641 -2.38125,-2.38125 l -10.92957,10.92957 c -2.10512,-0.64902 -3.29609,-1.91961 -3.07629,-3.70159 0.1578,-1.27935 1.02042,-0.60211 1.63659,-0.23357 -1.04996,-2.21481 -0.99945,-4.52997 -1.12241,-6.82904 -2.23376,2.40143 -3.41887,6.37566 -2.62775,10.25673 0.40244,1.9743 1.32618,2.82226 2.18126,3.51607 l -0.44596,2.82722 2.82721,-0.44597 c 0.69381,0.85508 1.54177,1.77882 3.51607,2.18126 3.88107,0.79111 7.8553,-0.39399 10.25673,-2.62775 -2.29907,-0.12296 -4.61423,-0.0724 -6.82903,-1.12241 0.36853,0.61618 1.04577,1.47879 -0.23358,1.63659 -1.78198,0.2198 -3.05257,-0.97116 -3.70159,-3.07629 z m -13.44156,-30.46997 c 1.19692,0 2.16731,0.9704 2.16731,2.16731 0,1.19691 -0.97039,2.16679 -2.16731,2.16679 -1.19691,0 -2.16679,-0.96988 -2.16679,-2.16679 0,-1.19691 0.96988,-2.16731 2.16679,-2.16731 z m 39.36298,0 c 1.19691,0 2.1673,0.9704 2.1673,2.16731 0,1.19691 -0.97039,2.16679 -2.1673,2.16679 -1.19692,0 -2.1668,-0.96988 -2.1668,-2.16679 0,-1.19691 0.96988,-2.16731 2.1668,-2.16731 z" />
          <path
             id="path2778"
             style="fill:none;stroke:#000000;stroke-width:1.2;stroke-linecap:butt;stroke-linejoin:miter;stroke-miterlimit:4;stroke-dasharray:none;stroke-opacity:1"
             d="m 353.23176,119.49156 c -0.77939,0.008 -1.65122,0.20881 -2.50734,0.82889 -2.39601,1.73543 -2.19768,3.62582 -2.45618,5.36246 1.43142,-1.47241 3.38173,-3.27991 6.06475,-0.65164 v 21.98677 2.44998 h -2.44998 -21.98677 c -2.62827,-2.68301 -0.82079,-4.63331 0.65163,-6.06474 -1.73665,0.2585 -3.62703,0.0602 -5.36247,2.45618 -0.62008,0.85612 -0.82088,1.72795 -0.82889,2.50734 -0.008,0.77941 0.17658,1.466 0.32763,1.95285 0.27059,0.8722 1.15663,2.19528 2.50579,2.90732 -1.34916,0.71204 -2.2352,2.03459 -2.50579,2.9068 -0.3021,0.97369 -0.73891,2.74795 0.50126,4.46019 1.73544,2.39598 3.62582,2.19769 5.36247,2.45618 -1.47242,-1.43143 -3.27991,-3.38121 -0.65163,-6.06423 h 21.98677 2.44998 v 2.44895 21.98677 c -2.68301,2.62827 -4.63333,0.82077 -6.06475,-0.65164 0.2585,1.73664 0.0602,3.62703 2.45618,5.36246 0.85612,0.62008 1.72795,0.82089 2.50734,0.82889 0.7794,0.008 1.466,-0.17658 1.95285,-0.32763 0.87219,-0.27059 2.19527,-1.15663 2.90731,-2.50579 0.71204,1.34916 2.03461,2.2352 2.9068,2.50579 0.9737,0.3021 2.74795,0.73891 4.46019,-0.50126 2.39598,-1.73543 2.1977,-3.62582 2.45619,-5.36246 -1.43143,1.47241 -3.38122,3.27991 -6.06424,0.65164 v -21.98677 -2.44895 h 2.44896 21.98676 c 2.62827,2.68302 0.82077,4.6328 -0.65163,6.06423 1.73664,-0.25849 3.62702,-0.0602 5.36246,-2.45618 1.24016,-1.71224 0.80336,-3.4865 0.50126,-4.46019 -0.2706,-0.87221 -1.15663,-2.19476 -2.50579,-2.9068 1.34916,-0.71204 2.2352,-2.03512 2.50579,-2.90732 0.15105,-0.48685 0.33567,-1.17345 0.32763,-1.95285 -0.008,-0.77939 -0.2088,-1.65122 -0.82889,-2.50734 -1.73544,-2.39601 -3.62582,-2.19768 -5.36246,-2.45618 1.47241,1.43143 3.2799,3.38172 0.65163,6.06474 h -21.98676 -2.44896 v -2.44998 -21.98677 c 2.68302,-2.62827 4.63281,-0.82077 6.06424,0.65164 -0.25849,-1.73664 -0.0602,-3.62703 -2.45619,-5.36246 -1.71224,-1.24017 -3.48649,-0.80336 -4.46019,-0.50126 -0.87219,0.27059 -2.19476,1.15663 -2.9068,2.50579 -0.71204,-1.34916 -2.03512,-2.2352 -2.90732,-2.50579 -0.48685,-0.15105 -1.17345,-0.33566 -1.95284,-0.32763 z" />
          <g
             id="g5912"
             transform="translate(94.870453,15.11696)">
            <path
               id="path5540"
               style="fill:#ffffff;fill-opacity:1;stroke:#000000;stroke-width:2.328;stroke-linecap:butt;stroke-linejoin:miter;stroke-miterlimit:4;stroke-dasharray:none;stroke-opacity:1"
               d="m 263.22095,127.97258 v 22.12986 m -7.68811,-23.65355 c -2.86674,0.005 -5.69734,0.56675 -8.51383,1.3438 v 20.06098 c 6.20599,-2.1897 11.21734,-0.0198 16.20194,2.24877 4.98461,-2.26853 9.99596,-4.43847 16.20195,-2.24877 v -20.06098 c -5.30164,-1.46269 -10.65271,-2.16294 -16.20195,0.1799 -2.60121,-1.09821 -5.15863,-1.52789 -7.68811,-1.5237 z" />
            <path
               id="path5844"
               style="fill:#ffffff;fill-opacity:1;stroke:#000000;stroke-width:1;stroke-linecap:butt;stroke-linejoin:miter;stroke-miterlimit:4;stroke-dasharray:none;stroke-opacity:1"
               d="m 263.22096,126.92208 v 23.01152 m -7.67912,-24.59591 c -2.86339,0.005 -5.69068,0.58933 -8.50388,1.39733 v 20.86022 c 6.19873,-2.27694 11.20422,-0.0206 16.183,2.33836 4.97877,-2.35891 9.98426,-4.6153 16.18299,-2.33836 v -20.86022 c -5.29544,-1.52095 -10.64024,-2.24911 -16.18299,0.18707 -2.59817,-1.14196 -5.1526,-1.58875 -7.67912,-1.5844 z" />
          </g>
          <g
             id="g94534"
             transform="translate(-0.0579437)">
            <path
               d="m 350.99911,153.25454 h -4.2255 l -0.50282,1.16443 q -0.247,0.58222 -0.247,0.96155 0,0.50282 0.40579,0.741 0.23817,0.14115 1.17325,0.21172 v 0.32639 h -3.97849 v -0.32639 q 0.64397,-0.097 1.05859,-0.52929 0.41461,-0.44107 1.02329,-1.8084 l 4.27842,-9.54485 h 0.1676 l 4.31371,9.80949 q 0.6175,1.39379 1.01447,1.75547 0.29994,0.27347 0.84687,0.31758 v 0.32639 h -5.7869 v -0.32639 h 0.23818 q 0.69689,0 0.97919,-0.19408 0.19407,-0.14114 0.19407,-0.40578 0,-0.15879 -0.0529,-0.3264 -0.0177,-0.0794 -0.26464,-0.66161 z m -0.29993,-0.6528 -1.78194,-4.11963 -1.83487,4.11963 z"
               style="font-weight:bold;font-size:50.8px;line-height:1.25;font-family:'Times New Roman';-inkscape-font-specification:'Times New Roman,  Bold';fill:none;stroke:#000000;stroke-width:0.462685;stroke-linecap:round;stroke-linejoin:round;stroke-miterlimit:4;stroke-dasharray:none;stroke-opacity:1"
               id="path94201" />
            <path
               d="m 365.11318,146.36609 v 0.35259 c -1.70378,0 -2.55567,1.51483 -2.55567,4.5445 0,1.16216 0.1249,2.10936 0.3747,2.84159 0.25621,0.73222 0.63731,1.09833 1.14332,1.09833 0.31387,0 0.60851,-0.13099 0.88392,-0.39298 0.28183,-0.262 0.60529,-0.67849 0.97038,-1.24947 -0.64052,-1.61225 -0.96078,-2.87182 -0.96078,-3.7787 0,-0.54413 0.10569,-0.98751 0.31706,-1.33014 0.21778,-0.3493 0.52203,-0.52395 0.91274,-0.52395 0.38431,0 0.68536,0.16795 0.90313,0.50384 0.21778,0.33588 0.32667,0.80948 0.32667,1.42079 0,0.75237 -0.20176,1.67605 -0.60529,2.77104 -0.17295,0.4568 -0.28504,0.76246 -0.33628,0.91697 0.7366,1.10841 1.33228,1.66262 1.78704,1.66262 1.04405,0 1.56607,-1.33682 1.56607,-4.01046 0,-1.46445 -0.20817,-2.56616 -0.62451,-3.30511 -0.40993,-0.73894 -1.05365,-1.12856 -1.93116,-1.16887 v -0.38291 c 0.19857,-0.007 0.35871,-0.0105 0.4804,-0.0105 1.57567,0 2.77984,0.50382 3.61251,1.51147 0.83908,1.00765 1.25862,2.23027 1.25862,3.66785 0,1.33011 -0.34908,2.4654 -1.04725,3.40587 -0.69176,0.93375 -1.50842,1.40063 -2.44997,1.40063 -1.03123,0 -2.00482,-0.66841 -2.92077,-2.00523 -0.59567,0.79941 -1.09848,1.33347 -1.50842,1.60218 -0.40993,0.2687 -0.86469,0.40305 -1.3643,0.40305 -1.06325,0 -1.92795,-0.49039 -2.5941,-1.47116 -0.65973,-0.98079 -0.98959,-2.09257 -0.98959,-3.33534 0,-1.47789 0.42915,-2.71058 1.28745,-3.69807 0.8647,-0.9875 2.08168,-1.48125 3.65095,-1.48125 0.0847,0 0.21232,0.003 0.38283,0.009 0.0167,6.2e-4 0.0303,0.0147 0.0303,0.0315 z"
               style="font-weight:bold;font-size:50.8px;line-height:1.25;font-family:'Times New Roman';-inkscape-font-specification:'Times New Roman,  Bold';fill:none;stroke:#000000;stroke-width:0.539291;stroke-linecap:round;stroke-linejoin:round;stroke-miterlimit:4;stroke-dasharray:none;stroke-opacity:1"
               id="path94203" />
          </g>
        </g>
      </g>
      <g
         id="g10776">
        <g
           id="g10769">
          <path
             id="path16000"
             style="fill:#000000;fill-opacity:1;fill-rule:evenodd;stroke:#000000;stroke-width:0.121063;stroke-miterlimit:4;stroke-dasharray:none;stroke-opacity:1"
             d="m 3.5279484,35.683191 c 0.4129395,0.379122 1.2572735,1.122677 1.417335,2.252955 0.1600615,-1.130278 1.0043919,-1.873833 1.4173347,-2.252955 H 4.9452834 Z m 1.417335,2.252955 c 1.1302764,0.160065 1.8738289,1.004392 2.2529516,1.417335 v -1.417335 -1.417333 c -0.3791227,0.41294 -1.1226752,1.25727 -2.2529516,1.417333 z m 0,0 c -0.1600615,1.13028 -1.0043955,1.873832 -1.417335,2.252955 h 1.417335 1.4173347 C 5.9496753,39.809978 5.1053449,39.066426 4.9452834,37.936146 Z m 0,0 C 3.8150067,37.776083 3.071451,36.931753 2.6923281,36.518813 v 1.417333 1.417335 c 0.3791229,-0.412943 1.1226786,-1.25727 2.2529553,-1.417335 z" />
          <path
             id="path17133"
             style="fill:#000000;fill-opacity:1;fill-rule:evenodd;stroke:#000000;stroke-width:0.121063;stroke-miterlimit:4;stroke-dasharray:none;stroke-opacity:1"
             d="m 60.294568,35.683191 c 0.41294,0.379122 1.257275,1.122677 1.417335,2.252955 0.160063,-1.130278 1.004393,-1.873833 1.417335,-2.252955 h -1.417335 z m 1.417335,2.252955 c 1.130278,0.160065 1.87383,1.004392 2.252953,1.417335 v -1.417335 -1.417333 c -0.379123,0.41294 -1.122675,1.25727 -2.252953,1.417333 z m 0,0 c -0.16006,1.13028 -1.004395,1.873832 -1.417335,2.252955 h 1.417335 1.417335 c -0.412942,-0.379123 -1.257272,-1.122675 -1.417335,-2.252955 z m 0,0 c -1.130275,-0.160063 -1.873832,-1.004393 -2.252955,-1.417333 v 1.417333 1.417335 c 0.379123,-0.412943 1.12268,-1.25727 2.252955,-1.417335 z" />
        </g>
        <path
           id="path10621"
           style="font-weight:bold;font-stretch:normal;font-size:6.52639px;font-family:Arial;-inkscape-font-specification:'Arial Bold';letter-spacing:0.389731px;stroke-width:0.0537104;stroke-linecap:square"
           d="m 30.854964,2.2887492 c -0.100117,-5.416e-4 -0.205165,0.0041 -0.31471,0.013436 -0.35774,0.030474 -0.659,0.1101828 -0.90382,0.2397787 -0.242704,0.1294155 -0.422732,0.3039777 -0.540536,0.5229655 -0.115867,0.2166905 -0.163856,0.4434961 -0.14366,0.6805786 0.03138,0.3683245 0.200908,0.6684133 0.508496,0.9002034 0.218721,0.1647345 0.585235,0.2880283 1.099674,0.3700033 0.399904,0.064014 0.656659,0.1102838 0.769979,0.1390096 0.165746,0.043449 0.283808,0.1017541 0.353984,0.1746663 0.07211,0.070615 0.112579,0.1607105 0.121956,0.2707845 0.01461,0.1714614 -0.04974,0.3284836 -0.19327,0.4707723 C 31.471466,6.210939 31.249134,6.2937249 30.946431,6.3195108 30.660662,6.3438543 30.427305,6.2914148 30.245699,6.1618977 30.066209,6.0322003 29.935692,5.816124 29.854508,5.5138753 l -0.906921,0.1669148 c 0.105746,0.5155053 0.327959,0.8963658 0.666626,1.1425659 0.338485,0.2440837 0.80214,0.3410683 1.390612,0.2909383 C 31.409136,7.0798528 31.74182,6.9948015 32.003214,6.8595295 32.264429,6.7221407 32.459333,6.5308757 32.587675,6.2854044 32.716014,6.039933 32.768524,5.7836936 32.745804,5.5169758 32.72074,5.2227397 32.637532,4.9818467 32.495691,4.7935058 32.355785,4.6028678 32.171088,4.4596287 31.941202,4.3640747 31.713254,4.2662234 31.365832,4.1824515 30.899406,4.113444 30.432979,4.0444364 30.136554,3.965641 30.009537,3.8762491 29.909723,3.8058615 29.855096,3.7155387 29.845723,3.6054646 c -0.01028,-0.120658 0.03118,-0.2213437 0.12454,-0.3017903 0.14497,-0.1253546 0.353768,-0.1994641 0.626835,-0.2227254 0.264601,-0.02254 0.466941,0.013343 0.607198,0.1080037 0.142198,0.092363 0.243781,0.2567033 0.304375,0.4924764 L 32.445048,3.5599894 C 32.393805,3.1336565 32.209248,2.8048916 31.891076,2.5740031 31.634281,2.3862599 31.288802,2.2910959 30.854964,2.2887492 Z m 4.946468,0.00982 c -0.225664,0.0023 -0.428861,0.032569 -0.610299,0.090434 -0.261794,0.084365 -0.470026,0.2239294 -0.624768,0.4185791 -0.152426,0.1927322 -0.239866,0.4074955 -0.261999,0.6444051 -0.03438,0.3680561 0.07941,0.6935452 0.341064,0.9761678 0.186072,0.200882 0.524701,0.3873105 1.016475,0.559139 0.382235,0.1338576 0.626852,0.2245018 0.733289,0.2728516 0.155425,0.072129 0.261148,0.1504183 0.317293,0.234611 0.05846,0.082275 0.08262,0.178361 0.07235,0.2883545 -0.016,0.1713364 -0.107417,0.3143077 -0.273885,0.4289143 C 36.346794,6.3247125 36.113733,6.3668871 35.81125,6.3386311 35.525689,6.3119555 35.304543,6.2192241 35.148759,6.0595784 34.995091,5.9001303 34.905354,5.6644957 34.879008,5.3526448 l -0.921908,0.0031 c 0.01273,0.5260854 0.163518,0.9405072 0.453202,1.2428182 0.289883,0.3001957 0.729189,0.4778522 1.317233,0.532784 C 36.13155,7.169088 36.474152,7.144266 36.755379,7.05745 37.036803,6.9685184 37.262536,6.8148271 37.43234,6.5959797 37.602142,6.3771324 37.699412,6.1343821 37.724312,5.8678588 37.751777,5.573837 37.712199,5.3212922 37.605973,5.1107991 37.50206,4.8983884 37.345551,4.7251918 37.136234,4.5904174 36.92923,4.4537254 36.602236,4.3099953 36.155415,4.159436 35.708596,4.0088767 35.430526,3.8782115 35.321358,3.7677286 35.235599,3.6807696 35.197913,3.58265 35.208186,3.4726562 c 0.01126,-0.1205701 0.07008,-0.2122867 0.176217,-0.2749186 0.164887,-0.097685 0.383422,-0.1340105 0.656291,-0.1085205 0.264407,0.0247 0.457509,0.095926 0.578776,0.2139404 0.123581,0.1160966 0.19453,0.2956892 0.21239,0.5384684 l 0.942578,0.046509 C 37.799545,3.4594681 37.676146,3.1035934 37.403918,2.8199829 37.133806,2.5365699 36.706673,2.3675737 36.122859,2.3130371 36.011147,2.3026016 35.904006,2.2975227 35.801432,2.2985677 Z M 25.406201,3.2726684 c -0.227343,0.00272 -0.465011,0.039437 -0.713135,0.1105876 -0.365548,0.1048231 -0.671444,0.2565958 -0.917257,0.4552693 -0.185162,0.1481306 -0.340571,0.3388407 -0.466121,0.5715414 -0.123508,0.232115 -0.203257,0.4768356 -0.239779,0.7348388 -0.04781,0.3496453 -0.0061,0.7533328 0.125057,1.2107788 0.204961,0.7147594 0.563094,1.2197406 1.074353,1.515153 0.510675,0.2933702 1.100062,0.3444546 1.767851,0.1529622 0.659621,-0.18915 1.127548,-0.5446293 1.404565,-1.0660847 C 27.718168,6.4342171 27.752461,5.8104479 27.544572,5.0854776 27.334925,4.3543809 26.972195,3.8402531 26.456266,3.5439697 26.135086,3.3584266 25.785105,3.2681316 25.406201,3.2726684 Z m -0.07751,0.8252726 c 0.215652,0.00239 0.416247,0.062343 0.602031,0.1803508 0.299295,0.188227 0.522672,0.5395724 0.670243,1.0541992 0.14933,0.5207533 0.145448,0.9451507 -0.0124,1.2733073 -0.156394,0.3255287 -0.415233,0.5402364 -0.776697,0.6438883 -0.361464,0.1036519 -0.697367,0.058661 -1.007174,-0.1353923 -0.310392,-0.1960954 -0.538381,-0.5482827 -0.684196,-1.056783 -0.148158,-0.5166689 -0.14467,-0.935912 0.01085,-1.2567708 0.154937,-0.322901 0.419516,-0.5377564 0.793234,-0.6449219 0.140143,-0.040187 0.274718,-0.059312 0.404109,-0.057878 z m 18.330147,0.00723 c -0.304243,-0.00124 -0.596448,0.067234 -0.877466,0.2051555 -0.528216,0.2576325 -0.931278,0.7495002 -1.208711,1.4758789 -0.262273,0.6866858 -0.282488,1.2997289 -0.06098,1.8391642 0.222267,0.5374505 0.622995,0.9170911 1.20251,1.1384317 0.468376,0.1788918 0.898264,0.210877 1.289844,0.096635 0.394323,-0.1154686 0.748007,-0.3860687 1.060917,-0.8123535 L 44.31409,7.4507079 C 44.118618,7.7421886 43.90815,7.930081 43.682604,8.0144978 43.457059,8.098917 43.226911,8.0967089 42.992724,8.0072631 42.675181,7.8859805 42.461988,7.6702634 42.35297,7.3602742 42.243951,7.0502849 42.294687,6.6190601 42.505415,6.0673298 c 0.198601,-0.519976 0.442602,-0.8577313 0.731739,-1.0133748 0.291121,-0.1548854 0.59841,-0.1705821 0.921907,-0.047026 0.234187,0.089446 0.40767,0.2311199 0.520382,0.4242635 0.114696,0.1939016 0.154702,0.4134337 0.119889,0.6593912 l 0.95188,0.125057 C 45.785391,5.8284436 45.738896,5.5033816 45.611686,5.2410237 45.398791,4.7981191 45.025209,4.4749633 44.491341,4.2710571 44.204808,4.1616184 43.927283,4.1062702 43.658833,4.1051757 Z M 20.188432,5.3200886 c -0.04427,3.616e-4 -0.08887,0.00387 -0.133842,0.00982 -0.238956,0.028882 -0.580102,0.1586004 -1.022677,0.3896403 l -1.759582,0.9188069 2.161625,4.1413492 0.836124,-0.436666 -0.90227,-1.7285764 0.169499,-0.088367 C 19.729405,8.4258144 19.878048,8.368205 19.983276,8.354013 20.087521,8.337938 20.201,8.351903 20.324341,8.395354 c 0.122356,0.041573 0.375279,0.167273 0.758093,0.3772379 l 1.07487,0.585494 0.999939,-0.521932 -0.927592,-0.5441528 C 21.861903,8.0741701 21.585796,7.9335296 21.401277,7.869287 21.218642,7.8040616 21.009778,7.765648 20.773926,7.7545653 21.109873,7.5120854 21.316559,7.2421906 21.394043,6.9453124 21.470543,6.646551 21.427588,6.3419004 21.265368,6.0311563 21.137559,5.7863277 20.963782,5.6003424 20.743953,5.4730509 20.565343,5.3696268 20.380263,5.318522 20.188432,5.3200886 Z m -0.234095,0.901237 c 0.06652,2.54e-5 0.129799,0.012029 0.189136,0.036174 0.119573,0.045422 0.215601,0.1381385 0.288355,0.2775024 0.06489,0.1242977 0.09075,0.2421409 0.07751,0.3545004 -0.01324,0.1123595 -0.06103,0.21165 -0.143144,0.2976562 -0.08212,0.086006 -0.323878,0.2339732 -0.72502,0.4433838 L 19.022611,7.9535196 18.473808,6.902421 19.126481,6.5618733 c 0.338994,-0.1769669 0.544819,-0.2783976 0.617533,-0.3043742 0.0737,-0.024093 0.143806,-0.036199 0.210323,-0.036174 z m 28.716077,0.3922241 c -0.137285,0.00213 -0.27792,0.020267 -0.422714,0.05426 -0.255618,0.061571 -0.492236,0.1641572 -0.709517,0.3079915 -0.293344,0.1961805 -0.567424,0.4954767 -0.822689,0.8971029 -0.398851,0.6275409 -0.539291,1.2301421 -0.421163,1.8086751 0.119269,0.5767398 0.472031,1.0515608 1.058334,1.4242028 0.57913,0.368083 1.155651,0.482822 1.72961,0.344165 0.575099,-0.140449 1.064611,-0.528798 1.469161,-1.165304 C 50.959404,9.6427582 51.103509,9.0306678 50.982934,8.4480627 50.864151,7.8665976 50.514309,7.391016 49.933386,7.0217935 49.612443,6.8178094 49.295823,6.6899669 48.98409,6.6378376 48.881856,6.6202157 48.77719,6.611895 48.670414,6.6135497 Z m 0.149861,0.8810832 c 0.233276,-0.00165 0.462752,0.069534 0.68833,0.2129069 0.328115,0.2085424 0.520273,0.4863755 0.576193,0.8340576 0.05771,0.3488216 -0.05699,0.7491308 -0.344165,1.2009603 -0.290593,0.4572083 -0.610918,0.7355023 -0.961182,0.8350913 -0.347332,0.09894 -0.679999,0.04771 -0.997355,-0.153996 -0.317357,-0.201705 -0.506047,-0.4828076 -0.566374,-0.8433593 -0.05919,-0.3623449 0.05318,-0.7669121 0.33693,-1.2133627 0.288313,-0.4536224 0.603969,-0.7282665 0.947229,-0.8247558 0.107625,-0.030713 0.21436,-0.046792 0.320394,-0.047542 z M 15.193904,8.4170572 c -0.423749,0.00778 -0.830622,0.1682379 -1.221114,0.4805908 -0.510975,0.4087295 -0.788857,0.9068906 -0.833024,1.494482 -0.04549,0.585934 0.174727,1.182355 0.660425,1.789555 0.459157,0.574021 0.977123,0.902116 1.554427,0.984436 0.575978,0.08066 1.106167,-0.07294 1.590601,-0.460437 0.391528,-0.313182 0.637529,-0.6675 0.737422,-1.062984 0.100225,-0.39847 0.0457,-0.840268 -0.163297,-1.326017 l -0.895036,0.344682 c 0.152269,0.316202 0.207368,0.592698 0.165881,0.829923 -0.04149,0.237225 -0.160286,0.434587 -0.35605,0.591178 -0.265443,0.212328 -0.559107,0.286819 -0.8816,0.223759 -0.322493,-0.06306 -0.668228,-0.325308 -1.037146,-0.786515 -0.347688,-0.434663 -0.515629,-0.81598 -0.503329,-1.144116 0.01396,-0.329464 0.156427,-0.6022466 0.426848,-0.8185547 0.195764,-0.1565911 0.405277,-0.2347719 0.628902,-0.2340943 0.225283,-6.494e-4 0.435001,0.076369 0.629419,0.2309937 L 16.287378,8.7963622 C 15.970867,8.5707269 15.666966,8.4465017 15.376322,8.4232584 c -0.06121,-0.00511 -0.121882,-0.00731 -0.182418,-0.0062 z m 38.147026,1.2195638 -3.166215,3.382739 2.400887,2.247408 0.537951,-0.574642 -1.712557,-1.602486 2.62878,-2.808614 z m -43.8345336,3.589962 -0.6392375,0.879016 0.8604126,1.958537 -2.1414713,-0.198955 -0.6506063,0.894003 3.1946371,0.208772 1.589567,1.157036 0.553455,-0.760161 -1.584917,-1.153418 z m 47.4648026,0.05219 -3.679879,2.815849 1.998845,2.611726 0.624768,-0.478523 -1.425236,-1.862419 3.054593,-2.337842 z m 3.030306,4.175972 -4.143417,2.158008 1.641244,3.151229 0.698149,-0.363802 -1.205612,-2.314588 1.12758,-0.587561 1.083655,2.080494 0.698149,-0.363803 -1.083655,-2.079976 0.918807,-0.478524 1.16427,2.235523 0.700732,-0.364836 z M 10.019027,19.142501 8.9575927,21.234363 5.5273111,19.493384 5.1004638,20.334159 9.2325113,22.431705 10.720793,19.499068 Z M 5.5836384,22.65133 c -0.3604441,-0.0023 -0.689223,0.07368 -0.986503,0.227377 -0.5278841,0.2712 -0.8915052,0.736287 -1.0903727,1.395263 -0.1098682,0.364064 -0.147564,0.703268 -0.1136882,1.017509 0.024236,0.235882 0.099761,0.469675 0.2273763,0.701249 0.1282292,0.229541 0.2912376,0.429525 0.4883423,0.599964 0.2680253,0.229565 0.6296168,0.412865 1.085205,0.550354 0.7118567,0.214827 1.3304642,0.187615 1.8557007,-0.08217 0.5232025,-0.27039 0.8850129,-0.73845 1.0857218,-1.403528 C 8.3336744,25.000406 8.2888592,24.414612 8.0005451,23.899316 7.7101972,23.383406 7.2038009,23.016503 6.4817748,22.798608 6.163219,22.702474 5.8639839,22.653107 5.5836384,22.65133 Z m 55.4426096,0.276469 c -0.273583,-0.0028 -0.556226,0.03848 -0.84801,0.124024 -0.430159,0.12611 -0.803236,0.33049 -1.118795,0.613399 -0.313521,0.28231 -0.517852,0.626942 -0.613399,1.033529 -0.09351,0.405989 -0.07184,0.843171 0.06563,1.312064 0.108181,0.368999 0.284312,0.712781 0.528133,1.030945 0.246458,0.319604 0.489057,0.547357 0.728121,0.683162 l 1.785938,-0.523482 -0.572058,-1.951302 -0.754993,0.221692 0.303857,1.036629 -0.568957,0.166915 c -0.146055,-0.105511 -0.2849,-0.243374 -0.416512,-0.412895 -0.128975,-0.16808 -0.221399,-0.346805 -0.276986,-0.536401 -0.112364,-0.38327 -0.07064,-0.731747 0.125057,-1.045931 0.197735,-0.314782 0.562932,-0.550422 1.095024,-0.706417 0.493357,-0.14464 0.899638,-0.137706 1.21853,0.02119 0.31949,0.160931 0.536723,0.439589 0.652673,0.835091 0.0765,0.260949 0.07608,0.496509 -0.0015,0.70745 -0.075,0.212382 -0.213314,0.382815 -0.414962,0.510563 l 0.432015,0.849561 c 0.385513,-0.210433 0.648217,-0.506745 0.788583,-0.888835 0.142999,-0.38065 0.133194,-0.849043 -0.02997,-1.405599 -0.125513,-0.42812 -0.304856,-0.764385 -0.537951,-1.008207 -0.304245,-0.320374 -0.666495,-0.525108 -1.086756,-0.614433 -0.157597,-0.0335 -0.318508,-0.05102 -0.482658,-0.05271 z M 5.4818359,23.607861 c 0.208217,0.0012 0.4408466,0.04049 0.697115,0.117822 0.5186384,0.156516 0.8731367,0.389789 1.063501,0.700216 0.1889441,0.307779 0.2290466,0.641493 0.1204061,1.001489 -0.1086406,0.359996 -0.3284695,0.617749 -0.6593913,0.77308 -0.3329557,0.154699 -0.7529194,0.155933 -1.2593546,0.0031 C 4.9295414,26.04828 4.5795371,25.818206 4.394047,25.513688 4.2065229,25.208556 4.1690691,24.869929 4.2813924,24.497729 4.3937157,24.12553 4.6096974,23.865548 4.9294148,23.717932 5.0895804,23.643095 5.2736189,23.606611 5.4818359,23.607861 Z m -2.9171346,4.944918 -0.0863,0.939477 1.8308959,0.168465 -0.1694987,1.840198 -1.8308959,-0.168465 -0.086816,0.939478 4.6524291,0.428397 0.0863,-0.939477 -2.0339843,-0.187069 0.1694987,-1.840715 2.0339843,0.187586 0.086816,-0.939478 z m 61.4319087,0.185001 -4.652429,0.423747 0.322461,3.538802 0.783414,-0.07183 -0.236678,-2.598808 1.266589,-0.115238 0.212391,2.335774 0.783931,-0.07183 -0.21239,-2.335774 1.031462,-0.09353 0.228409,2.509924 0.787032,-0.07131 z" />
        <path
           id="path10594"
           style="font-weight:bold;font-size:6.5264px;font-family:Arial;-inkscape-font-specification:'Arial Bold';letter-spacing:1.06098px;stroke-width:0.0537104;stroke-linecap:square"
           d="m 8.5927571,42.592748 -0.7177857,0.33073 0.5803263,1.258838 -3.5243326,1.62574 0.3948079,0.856279 3.5248494,-1.625224 0.5792928,1.255737 0.7172688,-0.331246 z m 49.0476519,0.619084 -0.393258,0.91674 3.575492,3.514514 0.394808,-0.91984 -0.823205,-0.772563 0.736389,-1.716174 1.136365,0.04341 0.404626,-0.942578 z m 0.800468,0.898137 1.846915,0.0925 -0.502295,1.170988 z m -2.069125,1.957503 -0.707967,1.052132 0.657841,2.739368 -1.721342,-1.158069 -0.526066,0.782898 3.876249,2.607592 0.526583,-0.782898 -1.171505,-0.788065 -0.221175,-1.070219 2.536279,0.15813 0.681096,-1.012858 -3.40186,-0.05271 z m -45.773949,0.660941 -3.8524784,2.642216 2.0102132,2.930571 0.649056,-0.445451 -1.4763957,-2.152324 1.0485148,-0.719335 1.3265341,1.934248 0.649056,-0.44545 -1.3265341,-1.933733 0.8542111,-0.58601 1.425753,2.078426 0.65164,-0.447001 z m 41.742154,4.671033 -0.699699,0.711068 2.052071,4.574397 0.701766,-0.713134 -0.485242,-1.01906 1.309998,-1.330668 1.042314,0.453719 0.719852,-0.731221 z m -37.834899,0.310059 -2.180229,2.087211 c -0.273164,0.261504 -0.483261,0.40241 -0.630969,0.42323 -0.146173,0.01935 -0.292256,-0.04703 -0.4377,-0.198955 -0.143976,-0.150393 -0.190763,-0.320323 -0.140043,-0.510046 0.03279,-0.125503 0.142645,-0.284708 0.328662,-0.47749 l -0.688847,-0.571542 c -0.359165,0.346779 -0.546382,0.699549 -0.561722,1.058334 -0.0138,0.357315 0.139053,0.702582 0.457853,1.035595 0.271788,0.283904 0.549364,0.455955 0.833541,0.516248 0.285711,0.05882 0.558433,0.02697 0.818038,-0.09509 0.197405,-0.09487 0.435899,-0.275739 0.715201,-0.543119 l 2.136304,-2.045353 z m 38.253478,0.818037 1.687236,0.757577 -0.894519,0.908472 z m -2.964677,1.299146 -0.774113,0.538468 1.049549,1.509986 -1.51722,1.055232 -1.050066,-1.509985 -0.774112,0.538469 2.66702,3.835941 0.774113,-0.538985 -1.16582,-1.6769 1.51722,-1.055233 1.166337,1.677417 0.77463,-0.538985 z m -33.392276,0.153479 c -0.2896,0.0065 -0.567685,0.07289 -0.834575,0.199471 -0.388203,0.184111 -0.72596,0.472396 -1.013891,0.864547 -0.2653,0.361327 -0.437713,0.750481 -0.516765,1.166854 -0.07779,0.41466 -0.03134,0.812095 0.139527,1.193208 0.172124,0.379402 0.45518,0.713851 0.849044,1.00304 0.309953,0.22758 0.658523,0.393832 1.045414,0.498677 0.38986,0.104391 0.720802,0.137956 0.993221,0.100769 l 1.101741,-1.500166 -1.639176,-1.203028 -0.465605,0.63407 0.870748,0.639754 -0.350883,0.477491 c -0.180116,0.0048 -0.373868,-0.02011 -0.58136,-0.07493 -0.204522,-0.05529 -0.386445,-0.141449 -0.545703,-0.258382 -0.321944,-0.236381 -0.500698,-0.538968 -0.535884,-0.907439 -0.03393,-0.370182 0.113149,-0.778298 0.441316,-1.225248 0.304278,-0.414413 0.631463,-0.655659 0.981336,-0.722953 0.351585,-0.06604 0.693562,0.02324 1.025777,0.267167 0.219192,0.160941 0.362051,0.348515 0.428397,0.563273 0.06931,0.214304 0.06255,0.433403 -0.02015,0.657324 l 0.858862,0.413412 c 0.17864,-0.401238 0.207713,-0.79609 0.08733,-1.184941 -0.11741,-0.389305 -0.409967,-0.755902 -0.877466,-1.099157 -0.359614,-0.264047 -0.705971,-0.422117 -1.039213,-0.47439 -0.136328,-0.02185 -0.270406,-0.03138 -0.402042,-0.02842 z m 5.170743,2.867008 -3.639571,3.447852 0.904855,0.427364 0.801501,-0.7953 1.688786,0.797367 -0.08372,1.133781 0.927592,0.437699 0.302307,-5.022949 z m 23.347929,0.217041 c -0.0695,4.18e-4 -0.139543,0.0054 -0.210323,0.01499 -0.210453,0.02905 -0.493169,0.122774 -0.84801,0.281636 l -1.573548,0.704867 1.908928,4.263822 1.620056,-0.725537 c 0.318,-0.142369 0.55829,-0.286315 0.721403,-0.431498 0.217552,-0.195161 0.368488,-0.398545 0.452685,-0.610816 0.111842,-0.280509 0.151626,-0.600092 0.119373,-0.958081 -0.02647,-0.293076 -0.118309,-0.614869 -0.275435,-0.965832 -0.17883,-0.399439 -0.375538,-0.713817 -0.590145,-0.943612 -0.215475,-0.231733 -0.454157,-0.401827 -0.716752,-0.510046 -0.196947,-0.08116 -0.399739,-0.121142 -0.608232,-0.11989 z m -0.143661,0.865064 c 0.103888,-0.0023 0.202477,0.01297 0.29559,0.04548 0.14898,0.05201 0.292263,0.15345 0.429431,0.303858 0.137168,0.150407 0.27927,0.390219 0.426847,0.719852 0.147576,0.329634 0.23526,0.60365 0.263033,0.821656 0.02691,0.216067 0.01285,0.386549 -0.04289,0.511596 -0.05381,0.124179 -0.142667,0.234874 -0.266651,0.33228 -0.09449,0.07489 -0.262373,0.16624 -0.502811,0.273885 l -0.642855,0.287837 -1.264006,-2.824633 0.38654,-0.173116 c 0.350963,-0.15713 0.592648,-0.248762 0.72502,-0.275436 0.06621,-0.01393 0.130421,-0.02186 0.192753,-0.02325 z m -23.228556,0.111621 -0.157613,1.842265 -1.152901,-0.544153 z M 26.109,58.610375 c -0.103116,0.0013 -0.203142,0.0097 -0.300757,0.02481 -0.23453,0.03498 -0.464889,0.121362 -0.690397,0.259416 -0.223448,0.138573 -0.415445,0.310017 -0.576709,0.514697 -0.217091,0.278225 -0.384195,0.648103 -0.500744,1.109493 -0.182108,0.720922 -0.126044,1.337641 0.167431,1.850016 0.293996,0.510315 0.777527,0.850469 1.451075,1.02061 0.665308,0.168059 1.248682,0.09656 1.75028,-0.214974 0.502119,-0.313596 0.845719,-0.836125 1.030428,-1.567346 0.186271,-0.7374 0.130677,-1.363997 -0.166398,-1.879472 -0.295015,-0.514955 -0.775954,-0.856681 -1.443322,-1.025261 -0.253481,-0.06403 -0.494031,-0.09475 -0.720887,-0.09198 z m 3.819922,0.823723 -0.257865,4.664831 0.874882,0.04806 0.168465,-3.041675 1.71204,3.145545 0.945162,0.05219 0.257865,-4.664315 -0.875398,-0.04858 -0.172083,3.115056 -1.736845,-3.220476 z m -3.628719,0.0067 c 0.109914,8.03e-4 0.223788,0.01572 0.341581,0.04548 0.37694,0.09522 0.646163,0.299202 0.80822,0.611849 0.164118,0.313166 0.180727,0.729438 0.04961,1.248502 -0.132678,0.525243 -0.349709,0.890171 -0.651123,1.094507 -0.298834,0.202797 -0.630707,0.257976 -0.995288,0.165881 -0.36458,-0.09209 -0.631743,-0.29973 -0.802018,-0.623217 -0.169757,-0.325547 -0.190019,-0.74492 -0.06046,-1.257805 0.131638,-0.521123 0.345571,-0.881356 0.641305,-1.080554 0.203674,-0.138365 0.426365,-0.206404 0.668176,-0.204639 z m 13.223999,2.007113 -1.730644,0.317293 0.161231,0.880567 1.730643,-0.316777 z" />
      </g>
    </g>
  </g>
</svg>
